<?xml version="1.0" encoding="utf-8"?>
<!-- Generator: Adobe Illustrator 16.0.0, SVG Export Plug-In . SVG Version: 6.00 Build 0)  -->
<!DOCTYPE svg PUBLIC "-//W3C//DTD SVG 1.1//EN" "http://www.w3.org/Graphics/SVG/1.1/DTD/svg11.dtd">
<svg version="1.1" id="Layer_1" xmlns="http://www.w3.org/2000/svg" xmlns:xlink="http://www.w3.org/1999/xlink" x="0px" y="0px"
	 width="1187px" height="390px" viewBox="0 0 1187 390" enable-background="new 0 0 1187 390" xml:space="preserve">
<g>
	<path fill-rule="evenodd" clip-rule="evenodd" d="M689.995,162.763c-8.986,30.55-20.919,62.7-30.438,94.465
		c15.213-0.342,32.719-2.672,50.379-4.203c15.465-1.336,36.183-0.715,46.709-7.869c8.889-6.045,9.075-19.305,15.743-28.338
		c4.001,14.594,16.168,34.309,7.349,48.277c-6.486,10.275-27.883,17.131-41.985,22.047c-16.746,5.832-29.271,10.693-46.181,17.314
		c-15.764,6.174-29.566,11.99-49.332,14.17c-23.605,2.605-55.841-2.127-58.779-25.189c-1.047-8.227,2.391-16.641,5.774-23.617
		c9.55-19.697,24.6-35.131,38.309-49.33c9.841-10.186,19.834-19.927,29.913-28.861C668.452,181.878,679.502,172.283,689.995,162.763
		z M646.437,229.939c-8.379,7.76-16.912,15.203-26.24,26.762c-7.47,9.256-18.347,20.361-16.792,33.588
		c1.124,9.572,15.255,12.879,25.189,13.121c18.958,0.465,38.104-7.773,56.153-14.17c18.479-6.553,36.775-12.574,53.005-19.42
		c-32.958-0.129-67.278,5.184-103.909,6.299C637.374,260.408,643.417,244.412,646.437,229.939z"/>
	<path d="M1182.254,72.319C1081.881,53.084,972.377,19.377,854.78,29.286c-7.418,0.629-15.438,3.187-22.043,2.628
		c-4.355-0.372-10.182-3.315-14.691-4.724c-36.762-11.48-79.014-9.794-115.457,1.05c-39.765,11.826-72.126,31.215-106.531,49.854
		c2.054-3.929,8.038-9.4,7.346-12.594C567.55,49.676,519.26,38.312,473.775,29.816c-15.981-2.989-33.509-5.115-47.756-2.626
		c-11.506,2.011-21.389,7.312-29.914,12.594c-3.75,2.327-10.211,8.341-14.17,8.922c-3.015,0.444-7.794-1.165-11.544-1.575
		c-28.157-3.059-59.292-3.565-86.066,1.051c-44.548,7.679-98.041,18.77-93.941,71.373c0.718,9.178,2.221,18.908-0.525,29.388
		c-1.76,6.735-5.416,13.082-8.397,18.895c-2.878,5.603-5.697,12.394-11.544,15.742c-0.184-27.61,4.817-53.082,11.544-80.295
		c5.112-20.681,17.729-58.639,3.152-78.191c-10.34-13.866-34.116-5.846-47.757-1.05c-24.284,8.533-44.784,17.15-65.6,28.862
		C44.886,67.732,18.253,86.169,8.807,116.933c-10.301,33.533,3.737,72.895,15.217,100.758c8.281,20.096,21.158,42.52,32.539,61.926
		c3.942,6.721,10.477,15.443,9.973,22.041c-0.666,8.652-10.318,13.197-13.12,20.99c-5.167,14.352,5.193,25.703,15.743,29.914
		c30.374,12.133,70.533-1.879,94.987-12.068c27.629-11.512,51.579-27.049,72.95-42.508c33.125-23.969,62.201-55.104,86.591-86.592
		c8.358-10.796,16.101-23.344,27.286-29.914c-8.268,20.451-16.622,41.703-24.138,65.076c-6.894,21.436-17.421,46.873-15.221,72.945
		c2.229,26.373,21.785,37.084,47.235,41.986c22.951,4.416,56.332,2.93,75.046-7.875c16.357-9.439,24.596-26.811,34.111-44.084
		c20.035,39.316,73.083,53.352,131.2,51.959c56.499-1.357,102.94-20.061,144.32-37.787c0.209,5.389,1.802,11.975,4.723,16.271
		c14.868,21.857,68.115,24.988,102.333,24.664c44.059-0.42,77.812-3.973,114.934-11.545c53.424-10.9,108.521-21.814,140.12-55.105
		c9.995-10.527,21.304-26.877,18.37-47.232c-2.871-19.902-24.165-23.822-45.66-22.566c6.824-7.602,20.133-14.58,26.24-26.766
		c6.214-12.397,6.937-30.737-2.102-41.457c-3.306-3.926-7.974-5.412-12.069-9.447
		C1130.202,133.623,1160.529,107.273,1182.254,72.319z M1067.325,138.97c-28.279,5.073-62.856,1.989-97.088-1.573
		c-11.348-1.183-23.941-2.843-32.015,0c-4.869,1.718-10.116,7.467-14.165,12.597c-3.178,4.021-9.276,12.594-6.825,18.368
		c1.978,4.646,14.444,4.545,20.99,4.724c35.692,0.962,70.03-15.943,110.734-17.843c14.829-0.692,31.339,1.578,37.785,12.069
		c7.974,12.971,1.07,30.604-5.774,37.782c-27.958,29.338-97.349,21.723-144.319,25.195c-18.93,1.396-36.904,3.596-47.758,12.068
		c-3.121,2.439-7.853,7.559-7.87,12.07c-0.021,6.705,6.514,10.029,11.023,12.068c29.528,13.381,72.95,3.447,106.01-4.197
		c14.974-3.465,32.402-8.76,49.854-12.594c22.818-5.014,64.963-15.516,57.728,19.945c-2.553,12.502-14.404,21.771-25.188,28.859
		c-31.964,21.018-77.315,33.631-119.655,41.984c-31.463,6.209-62.163,10.24-95.514,11.021c-12.937,0.305-26.96-0.068-45.134-1.574
		c-26.184-2.17-50.267-3.436-59.3-20.467c-4.485-8.457-3.861-21.072-1.576-32.539c-41.927,23.117-93.19,48.807-161.113,48.807
		c-33.847,0-64.011-5.744-87.116-18.369c-23.221-12.686-37.737-33.645-35.162-69.273c-12.224,25.639-22.679,53.014-42.508,72.426
		c-9.451,9.25-23.225,14.299-41.461,15.742c-24.364,1.93-55.341-1.857-60.876-22.566c-4.267-15.957,2.268-37.508,6.82-51.955
		c5.079-16.105,10.083-29.516,16.272-44.084c11.762-27.688,26.24-58.719,12.069-97.088c-19.808,24.061-35.892,49.801-55.102,72.946
		c-19.074,22.984-40.561,43.738-64.028,63.504c-23.191,19.537-46.254,36.426-76.094,51.432
		c-18.949,9.523-43.012,21.789-74.522,21.518c-10.779-0.094-22.849-1.51-24.668-6.826c-3.579-10.467,16.908-20.781,18.369-30.961
		c1.995-13.891-13.06-28.838-20.466-38.311c-9.622-12.301-15.4-24.574-21.517-36.738c-12.312-24.484-26.35-55.392-22.042-90.264
		c4.054-32.821,26.351-52.125,49.854-67.176c11.784-7.542,23.886-13.947,38.314-19.939c13.265-5.514,30.314-15.157,44.083-15.747
		c8.311-0.355,12.786,3.699,13.641,13.646c1.169,13.572-2.875,30.895-5.771,45.133c-6.966,34.215-17.028,68.381-14.696,109.159
		c0.53,9.27,2.674,17.502,7.346,18.369c6.748,1.248,14.341-8.973,17.843-13.645c9.793-13.06,17.065-22.547,24.668-37.26
		c3.583-6.939,7.46-15.027,8.396-22.565c2.148-17.332-6.189-36.222,0.525-49.857c5.71-11.601,20.961-17.656,33.06-22.043
		c34.709-12.581,75.449-15.491,119.656-11.544c8.392,0.748,17.924,3.646,24.664,2.622c5.745-0.876,13.381-9.045,17.844-12.069
		c5.594-3.792,12.94-7.671,20.466-9.446c15.9-3.76,34.653-0.672,51.429,2.622c32.013,6.286,63.114,13.524,94.466,24.668
		c0.482,2.289-2.725,5.936-4.723,8.922c-13.757,20.547-28.879,43.733-39.36,68.222c55.06-45.581,119.246-91.755,203.621-109.683
		c12.561-2.669,30.771-4.912,44.608-4.725c14.717,0.201,36.217,2.404,38.834,13.646c2.711,11.643-5.44,31.321-8.918,40.41
		c-5.166,13.492-10.894,24.178-15.221,35.162c22.178-3.823,48.812-10.168,70.849-14.171c-8.521-3.895-18.886-5.284-28.867-8.922
		c-7.819-2.849-18.73-8.974-19.938-17.318c-2.034-14.043,12.401-26.193,22.565-31.489c12.237-6.376,27.074-8.669,43.559-8.918
		c93.535-1.43,190.769,23.456,276.041,38.831c-0.915,4.083-4.612,7.013-7.345,9.973
		C1127.689,113.336,1103.339,132.513,1067.325,138.97z M960.266,152.089c-2.281,2.981-9.327,0.884-12.069,2.102
		C949.109,149.669,956.175,152.269,960.266,152.089z M995.428,242.879c-8.607,5.404-21.244,6.875-33.587,8.4
		c-16.489,2.037-36.477,1.166-51.433,0C932.867,243.195,968.085,244.75,995.428,242.879z"/>
</g>
</svg>
